<svg width="108" height="108" viewBox="0 0 108 108" fill="none" xmlns="http://www.w3.org/2000/svg">
<path d="M54 4.42969C40.8531 4.42969 28.2447 9.65226 18.9485 18.9485C9.65226 28.2447 4.42969 40.8531 4.42969 54C4.42969 67.1469 9.65226 79.7553 18.9485 89.0515C28.2447 98.3477 40.8531 103.57 54 103.57C60.5097 103.57 66.9556 102.288 72.9697 99.797C78.9839 97.3059 84.4485 93.6545 89.0515 89.0515C93.6545 84.4485 97.3059 78.9839 99.797 72.9697C102.288 66.9556 103.57 60.5097 103.57 54C103.57 47.4903 102.288 41.0444 99.797 35.0303C97.3059 29.0161 93.6545 23.5515 89.0515 18.9485C84.4485 14.3455 78.9839 10.6941 72.9697 8.203C66.9556 5.71186 60.5097 4.42969 54 4.42969ZM54 21.7266C71.8017 21.7266 86.2734 36.1984 86.2734 54C86.2734 71.8017 71.8017 86.2734 54 86.2734C36.1984 86.2734 21.7266 71.8017 21.7266 54C21.7266 36.1984 36.1984 21.7266 54 21.7266ZM54 25.5234C49.6933 25.5234 45.6138 26.4769 41.9576 28.1817C44.3933 35.1173 48.5616 43.875 54 43.875C59.447 43.875 63.4766 35.0895 65.9711 28.1486C62.3331 26.4646 58.2787 25.5234 54 25.5234ZM74.8305 34.5684C68.9846 39.0283 61.9334 45.7038 63.615 50.8796C65.2984 56.0611 74.9018 57.1778 82.2743 57.4052C82.4067 56.2885 82.4766 55.1528 82.4766 54C82.4766 46.4818 79.5751 39.6537 74.8305 34.5684ZM33.122 34.6197C28.4055 39.6993 25.5234 46.5069 25.5234 54C25.5234 55.1707 25.5952 56.3241 25.7318 57.4573C33.0794 57.2832 42.6872 56.0244 44.3669 50.8549C46.0489 45.6781 38.95 39.1367 33.122 34.6197ZM47.9273 43.8256C47.545 43.8364 47.1748 43.9624 46.8652 44.1872C46.458 44.4832 46.185 44.9288 46.1063 45.426C46.0276 45.9232 46.1496 46.4314 46.4455 46.8387C46.7414 47.246 47.1869 47.5191 47.6842 47.598C48.1814 47.6768 48.6896 47.5549 49.097 47.2591C49.2987 47.1125 49.4696 46.9277 49.5999 46.7151C49.7302 46.5026 49.8173 46.2664 49.8563 46.0201C49.8954 45.7739 49.8855 45.5224 49.8273 45.2799C49.7691 45.0375 49.6637 44.8089 49.5172 44.6072C49.3357 44.3575 49.096 44.1558 48.819 44.0196C48.542 43.8834 48.2359 43.8168 47.9273 43.8256ZM60.0727 43.8256C60.0279 43.8243 59.9831 43.8246 59.9383 43.8265C59.6526 43.8386 59.3733 43.915 59.1213 44.0502C58.8692 44.1853 58.651 44.3756 58.4828 44.607C58.3363 44.8087 58.2308 45.0373 58.1726 45.2798C58.1144 45.5222 58.1045 45.7738 58.1436 46.0201C58.1826 46.2663 58.2697 46.5025 58.4 46.7151C58.5303 46.9277 58.7013 47.1125 58.903 47.2591C59.3104 47.5549 59.8185 47.6768 60.3158 47.5981C60.813 47.5193 61.2586 47.2462 61.5545 46.8389C61.8504 46.4316 61.9724 45.9235 61.8937 45.4262C61.815 44.929 61.542 44.4834 61.1348 44.1874C60.8253 43.9626 60.4551 43.8365 60.0727 43.8256ZM54 47.25C52.2098 47.25 50.4929 47.9612 49.227 49.227C47.9612 50.4929 47.25 52.2098 47.25 54C47.25 55.7902 47.9612 57.5071 49.227 58.773C50.4929 60.0388 52.2098 60.75 54 60.75C55.7902 60.75 57.5071 60.0388 58.773 58.773C60.0388 57.5071 60.75 55.7902 60.75 54C60.75 52.2098 60.0388 50.4929 58.773 49.227C57.5071 47.9612 55.7902 47.25 54 47.25ZM44.2342 55.2734C44.0442 55.2762 43.8556 55.3075 43.6748 55.3662C43.4377 55.4432 43.218 55.5662 43.0284 55.7281C42.8388 55.89 42.6829 56.0877 42.5697 56.3098C42.4565 56.532 42.3881 56.7742 42.3686 57.0228C42.349 57.2714 42.3786 57.5214 42.4556 57.7585C42.6112 58.2373 42.9506 58.6347 43.3992 58.8632C43.8478 59.0918 44.3688 59.1328 44.8476 58.9773C45.0848 58.9003 45.3044 58.7773 45.494 58.6154C45.6836 58.4535 45.8394 58.2559 45.9527 58.0338C46.0659 57.8117 46.1342 57.5694 46.1538 57.3209C46.1734 57.0723 46.1439 56.8224 46.0669 56.5853C45.9416 56.1995 45.6961 55.864 45.3663 55.628C45.0365 55.3919 44.6398 55.2677 44.2342 55.2734ZM63.821 55.2751C63.4064 55.2571 62.9974 55.3754 62.6564 55.612C62.3155 55.8486 62.0614 56.1904 61.9332 56.585C61.8561 56.8222 61.8266 57.0721 61.8462 57.3207C61.8658 57.5692 61.9341 57.8114 62.0473 58.0336C62.1606 58.2557 62.3164 58.4533 62.506 58.6152C62.6956 58.7771 62.9152 58.9001 63.1524 58.9771C63.6312 59.1326 64.1521 59.0916 64.6007 58.8631C65.0493 58.6346 65.3887 58.2373 65.5444 57.7585C65.6214 57.5214 65.651 57.2714 65.6314 57.0228C65.6119 56.7742 65.5435 56.532 65.4303 56.3098C65.3171 56.0877 65.1612 55.89 64.9716 55.7281C64.782 55.5662 64.5623 55.4432 64.3252 55.3662C64.162 55.3132 63.9924 55.2826 63.821 55.2751ZM44.3846 61.1208C39.8305 61.1428 33.7871 64.6713 29.1077 67.8556C33.1216 75.063 40.1735 80.3355 48.5441 81.9541C50.6514 74.9109 52.4296 65.3706 48.0281 62.173C47.0043 61.429 45.7633 61.1141 44.3846 61.1208ZM63.5833 61.125C62.1953 61.125 60.9483 61.4448 59.9244 62.1886C55.5168 65.3908 57.422 74.8672 59.484 81.9488C67.8554 80.3214 74.9052 75.0385 78.9113 67.8217C74.2694 64.6104 68.1672 61.125 63.5833 61.1248V61.125ZM54 62.3489C53.4965 62.3489 53.0136 62.5489 52.6576 62.9049C52.3016 63.261 52.1016 63.7438 52.1016 64.2473C52.1016 64.7508 52.3016 65.2337 52.6576 65.5897C53.0136 65.9458 53.4965 66.1458 54 66.1458C54.5035 66.1458 54.9864 65.9458 55.3424 65.5897C55.6984 65.2337 55.8984 64.7508 55.8984 64.2473C55.8984 63.7438 55.6984 63.261 55.3424 62.9049C54.9864 62.5489 54.5035 62.3489 54 62.3489Z" fill="white"/>
</svg>
