<svg width="281" height="410" viewBox="0 0 281 410" fill="none" xmlns="http://www.w3.org/2000/svg">
<path fill-rule="evenodd" clip-rule="evenodd" d="M0 205V410L140.411 409.915L280.823 409.83L280.911 204.915L281 0H140.5H0V205ZM136.445 179.925V352.057H72.2771H8.10914V179.925V7.79338H72.2771H136.445V179.925ZM272.89 179.925V352.057H208.722H144.554V179.925V7.79338H208.722H272.89V179.925ZM147.727 13.0176V15.5312L155.196 23.0982C159.304 27.2602 168.313 36.3832 175.217 43.3718C188.378 56.6941 189.944 58.2816 205.309 73.8676C214.079 82.765 218.512 87.2363 224.016 92.7395L226.116 94.8386L225.264 96.0408C224.795 96.7022 224.295 97.2441 224.153 97.2454C224.011 97.2468 217.506 93.4883 209.698 88.8936C201.889 84.2989 193.676 79.4755 191.446 78.1747C187.687 75.982 174.075 67.9796 167.119 63.8728C165.471 62.8997 161.187 60.3858 157.599 58.2867C154.012 56.1872 150.485 54.1074 149.762 53.6645C149.039 53.2216 148.284 52.8594 148.083 52.8594C147.837 52.8594 147.749 56.9618 147.811 65.4813L147.904 78.1032L150.9 79.0055C152.549 79.5019 158.816 81.2886 164.827 82.9757C170.838 84.6632 178.771 86.8972 182.456 87.9408C186.14 88.9841 192.09 90.6597 195.677 91.6643C199.264 92.6687 204.341 94.1006 206.959 94.8464C209.577 95.5919 214.312 96.9266 217.481 97.812L223.244 99.4221L223.022 100.759C222.899 101.494 222.729 102.205 222.643 102.339C222.558 102.471 220.62 102.522 218.337 102.45C215.176 102.35 214.397 102.405 215.068 102.681C215.553 102.88 216.601 103.656 217.398 104.404L218.846 105.765L220.843 105.264L222.839 104.763L223.361 105.732C224.098 107.102 224.014 107.664 222.993 108.178L222.103 108.626L223.181 109.619C224.118 110.481 224.352 110.556 224.963 110.189C225.567 109.827 225.842 109.894 226.891 110.663C228.286 111.686 228.254 111.612 227.686 112.486C227.324 113.043 227.388 113.278 228.1 114.006C229.134 115.064 229.408 115.081 229.72 114.105C230.165 112.711 230.487 112.545 232.023 112.919L233.444 113.266L233.37 115.956L233.296 118.645L235.727 120.999C237.064 122.293 238.209 123.203 238.272 123.021C238.335 122.839 237.9 120.765 237.305 118.414C236.71 116.062 236.223 113.856 236.223 113.513C236.223 112.813 238.547 111.877 239.048 112.374C239.209 112.534 241.755 116.782 244.704 121.814C247.654 126.846 250.192 131.095 250.344 131.257C250.581 131.508 254.302 126.403 254.811 125.128C254.962 124.751 251.002 120.509 242.853 112.315L241.157 110.609L242.167 109.446L243.177 108.283L246.84 110.442C256.918 116.383 259.595 117.929 259.655 117.842C260.836 116.141 261.431 115.553 262.249 115.279C263.753 114.775 265.061 115.488 267.073 117.91L268.836 120.033L268.937 116.548C268.992 114.631 268.913 112.956 268.76 112.826C268.608 112.696 267.848 112.435 267.073 112.248C266.297 112.06 262.013 110.878 257.553 109.622C253.093 108.366 248.295 107.033 246.89 106.659L244.336 105.981L244.559 104.579C244.682 103.808 244.829 103.124 244.886 103.06C245.059 102.862 261.907 103 265.574 103.229L269.012 103.444L269.051 100.092C269.092 96.5847 269.027 95.1287 268.82 94.9223C268.674 94.7766 267.818 94.9616 255.492 97.7991C250.286 98.9976 245.714 100.012 245.332 100.053C244.81 100.109 244.512 99.7901 244.137 98.7726C243.862 98.0271 243.635 97.3921 243.632 97.3616C243.629 97.3311 246.998 95.521 251.119 93.3399C255.24 91.1584 260.948 88.1339 263.804 86.6186L268.997 83.8635L269.004 77.2818L269.012 70.6998L268.057 71.5215C267.531 71.9732 265.509 73.8046 263.561 75.5917C251.722 86.4563 242.403 94.7173 241.907 94.7864C241.593 94.8305 240.89 94.513 240.345 94.0806L239.355 93.2948L241.075 90.6122C242.021 89.1369 243.717 86.4811 244.844 84.7106C245.971 82.9402 247.487 80.5767 248.214 79.4585C248.94 78.3404 253.917 70.55 259.273 62.1467L269.012 46.8683V28.6861V10.5041H265.524H262.037L261.803 11.4359C261.675 11.9486 260.067 17.2471 258.231 23.2107C256.394 29.1743 254.165 36.4171 253.277 39.3057C252.39 42.1944 251.139 46.235 250.498 48.285C249.858 50.335 248.355 55.2144 247.16 59.128C245.965 63.0416 244.691 67.1586 244.329 68.2767C243.968 69.3949 242.694 73.5119 241.499 77.4255C240.304 81.3391 238.803 86.2185 238.163 88.2685L236.999 91.9957L235.55 92.1001C234.471 92.1777 234.045 92.0645 233.882 91.6559C233.761 91.3543 233.925 82.006 234.247 70.8821C234.567 59.7582 234.979 44.7865 235.16 37.6115C235.342 30.4365 235.593 21.402 235.719 17.5351L235.947 10.5041H223.227C213.206 10.5041 210.539 10.5939 210.658 10.9277C210.741 11.1608 211.61 14.5533 212.589 18.4669C213.569 22.3805 215.551 30.2332 216.996 35.9173C218.44 41.6014 220.43 49.4541 221.419 53.3677C223.574 61.8963 225.106 67.9332 228.599 81.6536C230.046 87.3336 231.171 92.0716 231.099 92.1824C230.921 92.4593 228.14 93.325 227.986 93.1518C227.917 93.0749 226.27 90.1914 224.325 86.7437C214.668 69.625 195.681 36.0349 188.087 22.6347C186.112 19.1497 183.885 14.9948 183.138 13.4012L181.78 10.5041H164.754H147.727V13.0176ZM55.4274 28.5475C54.8576 29.5257 53.2365 32.3849 51.8248 34.9008C50.4128 37.4167 48.9633 39.9793 48.6037 40.5957C48.2441 41.2121 47.9497 41.8603 47.9497 42.0358C47.9497 42.2279 51.627 42.3553 57.1599 42.3553H66.3701L66.184 58.8739C65.9872 76.3388 65.5645 82.3435 64.1602 87.6202C63.3133 90.8023 62.3029 92.3691 59.9399 94.1643C57.65 95.9036 55.0163 97.0811 52.2496 97.6022L50.0267 98.021L50.2153 99.7522C50.3193 100.704 50.5696 103.694 50.7717 106.397C50.974 109.099 51.2275 111.976 51.3354 112.79L51.5311 114.27L53.3543 114.051C59.6889 113.29 67.48 110.442 71.7482 107.327C75.0328 104.93 78.756 101.039 79.9339 98.7726C81.0621 96.6019 81.9129 93.5652 82.544 89.4544C82.9692 86.6847 83.2861 41.415 82.9456 32.1053L82.7502 26.7686H69.6067H56.4632L55.4274 28.5475ZM191.622 105.852C185.922 111.451 184.115 113.016 182.189 114.022L179.808 115.267L177.43 114.022C176.122 113.338 174.253 112.028 173.278 111.112C171.299 109.254 170.322 109.042 169.329 110.255C168.965 110.699 167.122 112.637 165.235 114.56L161.802 118.057L154.853 120.288L147.904 122.519L147.808 129.028C147.733 134.15 147.808 135.537 148.165 135.537C148.414 135.537 150.916 133.316 153.726 130.601C159.488 125.033 163.153 122.599 168.489 120.797L171.5 119.781L171.394 116.411L171.288 113.041L172.642 114.217C173.386 114.863 175.225 116.04 176.727 116.833L179.459 118.274V120.447V122.62L181.811 125.182C183.106 126.591 184.276 127.744 184.413 127.744C184.549 127.744 186.055 125.96 187.759 123.78C190.478 120.3 190.915 119.546 191.338 117.596C191.931 114.866 196.748 104.908 198.128 103.561L199.124 102.589L200.111 104.238C200.654 105.146 202.595 107.365 204.424 109.17L207.751 112.451L206.492 114.615C205.68 116.01 204.835 118.303 204.114 121.073L202.995 125.368L200.067 128.84C198.457 130.749 197.184 132.354 197.237 132.405C197.29 132.457 200.472 131.022 204.307 129.217L211.279 125.935L211.032 122.081L210.785 118.226L213.455 114.792C214.924 112.903 216.126 111.166 216.126 110.932C216.126 110.698 215.971 110.116 215.782 109.638C215.593 109.159 215.565 108.768 215.719 108.768C215.988 108.768 246.528 136.465 246.715 136.879C246.766 136.991 244.751 138.801 242.238 140.902C237.673 144.718 237.252 145.315 238.644 146.007C239.141 146.254 252.183 144.744 254.38 144.185C254.768 144.086 256.431 142.25 258.075 140.104C260.781 136.571 261.376 136.005 264.352 134.118C266.161 132.972 267.773 131.793 267.934 131.499C268.122 131.156 267.797 129.616 267.035 127.235C266.379 125.185 265.846 123.432 265.851 123.339C265.857 123.245 266.644 124.008 267.602 125.033L269.342 126.896L269.353 124.81L269.364 122.723L266.722 119.679C265.269 118.005 263.859 116.554 263.589 116.455C262.816 116.17 261.809 117.049 260.477 119.173C257.538 123.86 251.246 133.075 250.395 133.938C249.885 134.456 249.281 134.838 249.054 134.785C248.827 134.733 241.091 127.828 231.862 119.442C220.951 109.527 214.789 104.158 214.241 104.091C213.581 104.01 212.871 104.539 210.954 106.538L208.51 109.088L205.844 106.472C204.378 105.033 202.669 102.978 202.046 101.905C200.723 99.6298 200.082 98.9447 199.266 98.9345C198.94 98.9301 195.501 102.043 191.622 105.852ZM147.98 100.845C147.642 101.17 147.653 120.966 147.992 120.97C148.137 120.971 151.149 120.038 154.684 118.895L161.112 116.816L165.384 112.454C170.643 107.082 170.868 107.021 174.267 110.04C175.474 111.113 177.216 112.37 178.137 112.835L179.811 113.681L181.486 112.853C183.041 112.084 193.562 102.561 193.562 101.921C193.562 101.774 191.46 101.652 188.89 101.651C184.301 101.65 165.531 101.192 154.062 100.801C150.856 100.691 148.12 100.711 147.98 100.845ZM204.139 102.378C204.139 102.645 205.116 103.843 206.311 105.043L208.483 107.223L210.454 105.134C211.537 103.986 212.821 102.895 213.306 102.71C214.013 102.44 213.666 102.369 211.543 102.349C210.088 102.337 207.827 102.228 206.519 102.109C204.585 101.934 204.139 101.984 204.139 102.378ZM199.026 143.692C177.546 146.03 167.153 148.028 162.826 150.653C159.681 152.561 160.161 155.21 163.99 157.075C167.517 158.793 174.046 160.102 190.036 162.298C210.356 165.089 219.039 166.947 221.914 169.121C223.061 169.988 223.058 170.459 221.896 171.786C220.615 173.249 216.969 174.936 212.283 176.234C209.61 176.974 208.486 177.424 208.795 177.631C209.104 177.838 209.017 177.874 208.523 177.742C208.123 177.635 205.029 178.168 201.648 178.926C198.267 179.685 191.614 181.143 186.863 182.166C175.975 184.512 167.227 186.621 161.125 188.373C155.739 189.918 147.727 192.764 147.727 193.132C147.727 193.266 149.671 192.694 152.046 191.862C159.16 189.37 177.176 184.446 178.099 184.742C178.282 184.8 176.639 185.287 174.449 185.824C166.087 187.873 157.239 190.423 152.575 192.127L147.727 193.899V197.619V201.339L148.873 200.614C150.596 199.526 153.993 197.883 154.504 197.892C154.752 197.896 153.936 198.427 152.691 199.072C151.446 199.717 149.82 200.649 149.077 201.143L147.727 202.042V208.849V215.655L149.226 216.92C150.249 217.785 150.535 218.19 150.128 218.2C149.8 218.208 149.434 218.063 149.315 217.877C149.196 217.692 148.79 217.382 148.413 217.188C147.75 216.847 147.727 216.984 147.727 221.416V225.996L149.456 226.839C154.557 229.323 165.634 232.955 174.875 235.174C177.299 235.755 179.433 236.371 179.617 236.541C180.233 237.11 178.97 236.872 172.387 235.175C164.446 233.127 156.712 230.614 151.579 228.413L147.727 226.761V228.014V229.267L151.694 230.882C153.875 231.771 157.564 233.105 159.891 233.846C164.157 235.206 176.732 238.545 177.587 238.545C177.841 238.545 178.048 238.609 178.048 238.687C178.048 238.765 177.128 240.328 176.003 242.16C174.877 243.992 172.467 248.118 170.645 251.329L167.333 257.166L166.391 256.081C165.51 255.067 165.254 254.981 162.493 254.76C154.892 254.154 152.555 254.53 151.262 256.568C149.779 258.906 150.721 263.337 152.931 264.416C153.463 264.675 155.448 264.962 157.345 265.054C159.241 265.145 160.876 265.3 160.978 265.398C161.08 265.496 160.212 267.08 159.048 268.918C157.885 270.756 156.822 272.703 156.685 273.244C156.543 273.81 155.134 275.543 153.368 277.325C151.416 279.294 150.134 280.898 149.849 281.73C149.502 282.739 149.459 285.172 149.658 292.388C149.8 297.531 149.927 302.578 149.939 303.603C149.951 304.628 149.458 311.005 148.844 317.775C147.443 333.22 147.319 341.883 148.466 344.16C148.872 344.967 149.88 346.158 150.706 346.809L152.207 347.991L162.043 347.986C171.57 347.98 171.922 347.956 173.256 347.223C174.956 346.288 175.883 345.123 176.301 343.391C176.477 342.659 176.625 338.464 176.63 334.067C176.638 326.392 176.671 326.014 177.447 324.603C177.892 323.794 178.482 323.061 178.757 322.972C179.168 322.841 179.158 322.96 178.707 323.626C175.837 327.866 177.535 334.168 182.13 336.329C183.733 337.082 184.761 337.26 189.224 337.556C195.263 337.955 196.429 337.764 199.216 335.922L201.057 334.705L206.289 335.14C210.528 335.493 213.552 335.495 222.236 335.151C229.729 334.853 238.373 334.799 250.981 334.972L269.012 335.218V329.93V324.642L231.366 324.542L193.721 324.442L191.966 323.069C189.703 321.299 187.996 320.577 185.466 320.323C182.571 320.033 180.164 320.671 178.326 322.217C175.974 324.197 175.689 324.272 170.539 324.272C166.337 324.272 165.702 324.348 164.907 324.95C164.414 325.323 163.932 325.628 163.835 325.628C163.433 325.628 160.067 320.92 160.067 320.358C160.067 320.021 160.252 319.256 160.477 318.657C160.857 317.646 160.793 317.444 159.602 315.884C158.009 313.799 156.05 309.853 155.27 307.161C154.85 305.712 154.634 303.238 154.515 298.551L154.349 291.973L173.928 292.213C195.32 292.474 194.61 292.525 197.338 290.526C198.754 289.488 200.49 286.668 200.801 284.902L201.028 283.611H235.02C264.95 283.611 269.012 283.55 269.012 283.105C269.012 282.659 264.916 282.587 235.079 282.512L201.146 282.425L199.797 279.798C198.404 277.085 197.234 275.951 194.972 275.119C194.055 274.781 190.639 274.633 181.662 274.54L169.587 274.415V269.17C169.587 263.725 169.903 262.271 171.189 261.797C171.503 261.681 172.869 261.586 174.224 261.586H176.689L176.594 263.535L176.498 265.483L178.032 265.59C179.822 265.714 180.148 265.387 180.164 263.45C180.17 262.705 180.291 261.926 180.434 261.721C180.61 261.465 184.843 261.279 193.738 261.133C200.913 261.016 212.84 260.747 220.243 260.535C230.258 260.249 237.479 260.248 248.449 260.532C256.559 260.742 264.503 260.913 266.103 260.911L269.012 260.909V257.351V253.793L226.439 253.797C203.024 253.799 183.26 253.897 182.519 254.014C181.715 254.142 180.977 254.516 180.688 254.942C180.328 255.472 179.106 262.809 179.106 264.437C179.106 264.546 178.697 264.636 178.197 264.636C177.394 264.636 177.309 264.527 177.477 263.704C177.582 263.191 177.772 260.928 177.9 258.673C178.16 254.088 178.068 253.897 175.871 254.488C173.866 255.028 172.814 256.196 170.546 260.4C168.796 263.644 168.186 264.489 167.528 264.579C166.441 264.727 166.462 264.667 169.533 258.952C173.678 251.239 174.919 250.535 185.276 250.019C188.767 249.845 208.995 249.617 230.229 249.512L268.836 249.322L268.929 240.083L269.023 230.845L265.404 230.63C247.437 229.565 229.528 229.551 205.373 230.583C191.75 231.164 189.584 231.398 187.536 232.503C185.138 233.798 180.96 239.135 175.919 247.344C174.492 249.667 172.46 252.717 171.403 254.121C169.717 256.36 166.26 262.728 165.557 264.89C165.325 265.602 165.412 265.652 166.864 265.652H168.42L168.647 269.948C168.771 272.311 168.826 274.291 168.767 274.346C168.709 274.403 166.767 274.47 164.452 274.496C159.774 274.548 159.02 274.776 157.301 276.657C154.821 279.372 153.94 282.288 153.351 289.728C152.447 301.145 154.24 310.196 158.524 315.847C159.711 317.412 160.031 318.623 159.362 319.02C158.566 319.493 159.048 321.199 160.525 323.134C162.799 326.112 162.77 325.966 161.091 325.966C159.829 325.966 159.413 325.772 158.33 324.678C156.738 323.069 154.733 319.419 153.733 316.309C152.595 312.766 150.988 303.102 150.519 296.981C150.057 290.947 150.279 282.7 150.935 281.507C151.17 281.08 152.503 279.561 153.898 278.131C155.839 276.142 156.957 274.565 158.656 271.415C160.497 268.003 161.233 266.998 162.956 265.544C164.833 263.959 165.302 263.263 167.782 258.367C172.849 248.364 177.263 241.308 182.147 235.398C185.925 230.828 187.339 229.859 190.944 229.369C199.285 228.233 233.035 227.726 257.189 228.374C263.581 228.545 268.883 228.617 268.97 228.533C269.058 228.449 269.041 228.295 268.933 228.191C268.497 227.772 243.001 227.003 231.287 227.056L218.77 227.112L208.017 225.538C186.211 222.346 176.643 220.47 167.87 217.663C158.979 214.818 152.977 210.328 154.133 207.386C155.303 204.407 162.273 200.692 174.084 196.749C178.634 195.231 187.355 192.64 199.908 189.077C223.701 182.325 232.027 178.554 234.585 173.373C237.138 168.203 232.597 163.89 222.051 161.467C215.577 159.979 206.171 158.848 189.507 157.555C178.506 156.701 169.771 155.45 167.648 154.426C165.242 153.266 165.416 152.303 168.263 151.013C172.547 149.074 180.651 147.261 195.853 144.843C201.283 143.979 205.792 143.209 205.872 143.132C206.073 142.94 205.51 142.986 199.026 143.692ZM35.0114 154.087L30.3581 162.136L36.3335 162.229L42.3085 162.321V183.322V204.322H40.6987C37.6151 204.322 37.7251 204.022 37.7251 212.433V219.842L41.8678 220.094C47.0912 220.411 65.6086 220.062 70.5142 219.553C77.5442 218.825 82.2936 216.674 87.4719 211.877C95.2038 204.714 99.3853 196.239 100.044 186.399C100.188 184.236 100.227 174.309 100.13 164.339L99.9539 146.211L69.8091 146.124L39.6643 146.038L35.0114 154.087ZM82.8627 162.39C82.8676 162.437 82.9674 165.829 83.0848 169.929C83.3253 178.326 82.7827 188.904 81.9541 191.981C80.443 197.594 74.4881 202.845 67.754 204.503C66.3606 204.846 64.4483 204.992 62.1692 204.927L58.7031 204.83L58.6118 183.991C58.5614 172.53 58.5959 162.962 58.6887 162.729C58.8191 162.402 61.5819 162.306 70.8559 162.306C77.455 162.306 82.8581 162.343 82.8627 162.39ZM224.235 170.132C224.235 170.466 223.823 171.167 223.319 171.689L222.404 172.64L223.143 171.663C224.044 170.472 224.072 169.86 223.266 168.94C222.649 168.236 222.649 168.236 223.442 168.881C223.878 169.236 224.235 169.799 224.235 170.132ZM202.28 179.452C202.163 179.565 201.859 179.577 201.605 179.479C201.323 179.371 201.407 179.291 201.818 179.274C202.189 179.26 202.397 179.34 202.28 179.452ZM200.87 179.791C200.753 179.904 200.449 179.916 200.195 179.818C199.913 179.71 199.997 179.63 200.407 179.613C200.779 179.599 200.987 179.679 200.87 179.791ZM199.46 180.13C199.343 180.242 199.038 180.255 198.784 180.157C198.503 180.049 198.586 179.968 198.997 179.952C199.369 179.938 199.577 180.017 199.46 180.13ZM198.049 180.469C197.932 180.581 197.628 180.594 197.374 180.496C197.093 180.388 197.176 180.307 197.587 180.291C197.959 180.276 198.167 180.356 198.049 180.469ZM196.639 180.808C196.522 180.92 196.218 180.932 195.964 180.834C195.682 180.726 195.766 180.646 196.177 180.63C196.548 180.615 196.756 180.695 196.639 180.808ZM193.466 181.485C193.349 181.598 193.045 181.61 192.791 181.512C192.509 181.404 192.593 181.324 193.003 181.307C193.375 181.293 193.583 181.373 193.466 181.485ZM191.703 181.824C191.586 181.937 191.282 181.949 191.028 181.851C190.746 181.743 190.83 181.663 191.241 181.646C191.612 181.632 191.82 181.712 191.703 181.824ZM190.293 182.163C190.176 182.276 189.872 182.288 189.617 182.19C189.336 182.082 189.42 182.001 189.83 181.985C190.202 181.971 190.41 182.051 190.293 182.163ZM187.392 182.829C186.422 183.088 185.391 183.289 185.1 183.274C184.372 183.237 187.573 182.364 188.449 182.361C188.837 182.359 188.361 182.57 187.392 182.829ZM184.299 183.518C184.182 183.631 183.878 183.643 183.624 183.545C183.342 183.437 183.426 183.357 183.837 183.341C184.208 183.326 184.416 183.406 184.299 183.518ZM182.889 183.857C182.772 183.97 182.468 183.982 182.213 183.884C181.932 183.776 182.016 183.696 182.426 183.679C182.798 183.665 183.006 183.745 182.889 183.857ZM179.716 184.535C179.599 184.647 179.294 184.66 179.04 184.562C178.759 184.454 178.842 184.373 179.253 184.357C179.625 184.342 179.833 184.422 179.716 184.535ZM196.287 185.551C196.17 185.664 195.865 185.676 195.611 185.578C195.33 185.47 195.413 185.39 195.824 185.374C196.196 185.359 196.404 185.439 196.287 185.551ZM194.876 185.89C194.759 186.003 194.455 186.015 194.201 185.917C193.919 185.809 194.003 185.729 194.414 185.712C194.785 185.698 194.993 185.778 194.876 185.89ZM189.588 187.246C189.471 187.358 189.166 187.37 188.912 187.272C188.631 187.164 188.714 187.084 189.125 187.068C189.497 187.053 189.705 187.133 189.588 187.246ZM188.178 187.585C188.06 187.697 187.756 187.709 187.502 187.611C187.221 187.503 187.304 187.423 187.715 187.407C188.087 187.392 188.295 187.472 188.178 187.585ZM181.831 189.279C181.714 189.391 181.41 189.403 181.156 189.305C180.874 189.197 180.958 189.117 181.369 189.101C181.74 189.086 181.948 189.166 181.831 189.279ZM179.106 189.958C175.698 190.986 172.683 191.745 172.919 191.516C173.233 191.21 179.461 189.448 180.164 189.466C180.455 189.474 179.979 189.695 179.106 189.958ZM167.795 193.255C167.436 193.536 158.905 196.202 158.772 196.075C158.656 195.963 163.169 194.336 167.119 193.064C167.635 192.898 168.087 193.026 167.795 193.255ZM158.128 221.746C160.067 222.597 161.852 223.294 162.095 223.295C162.337 223.296 162.535 223.45 162.535 223.636C162.535 224.068 162.555 224.07 160.729 223.455C158.166 222.593 153.721 220.501 153.721 220.158C153.721 219.981 153.92 219.918 154.162 220.017C154.404 220.117 156.189 220.895 158.128 221.746ZM171.775 226.216C176.655 227.492 176.889 227.574 176.548 227.902C176.303 228.138 167.095 225.714 166.608 225.286C166.039 224.786 166.887 224.939 171.775 226.216ZM184.731 229.179C185.788 229.416 186.472 229.718 186.249 229.85C185.865 230.079 180.869 229.16 180.869 228.861C180.869 228.589 182.819 228.75 184.731 229.179ZM59.1586 254.719L59.0557 257.351L47.6398 257.52L36.2235 257.69L31.6986 265.314C29.2098 269.507 27.1677 273.046 27.1607 273.178C27.1536 273.31 28.4571 273.463 30.0567 273.517L32.9654 273.615L33.1893 302.519C33.312 318.416 33.5105 331.516 33.6297 331.631C33.8222 331.816 41.8886 330.937 48.9193 329.965L51.4754 329.611V301.867V274.124H55.1774H58.8794V302.925C58.8794 325.133 58.9764 331.727 59.3032 331.727C59.7326 331.727 74.9584 329.157 76.4198 328.837L77.2131 328.664V301.394V274.124H81.9978H86.7826L86.637 291.828C86.5104 307.201 86.411 309.832 85.8814 311.805C85.2457 314.174 84.218 315.801 83.3574 315.801C82.935 315.801 82.8542 317.143 82.8542 324.146V332.492L85.3349 332.257C90.8841 331.731 95.2725 329.993 97.7581 327.336C99.6289 325.336 101.506 321.737 102.713 317.834L103.604 314.954L103.718 289.202C103.827 264.608 103.803 263.397 103.175 262.264C102.255 260.604 100.899 259.277 99.2488 258.421C97.909 257.726 97.3146 257.685 87.364 257.586L76.8894 257.483L76.7868 254.876L76.6842 252.268L67.9729 252.178L59.2619 252.087L59.1586 254.719ZM166.414 258.403C166.414 259.302 165.305 261.65 165.151 261.078C165.101 260.892 164.986 259.601 164.897 258.21L164.734 255.682L165.574 256.62C166.036 257.136 166.414 257.938 166.414 258.403ZM163.749 256.918C164.385 257.791 164.508 261.593 163.933 262.625C163.602 263.221 163.156 263.281 159.036 263.281C153.369 263.281 152.971 263.068 152.734 259.924C152.595 258.08 152.675 257.721 153.386 256.994C154.164 256.198 154.379 256.165 158.699 256.165C162.951 256.165 163.231 256.207 163.749 256.918ZM235.613 272.673C237.614 272.963 238.237 275.61 236.495 276.417C235.89 276.698 235.84 276.794 236.291 276.811C237.038 276.84 237.986 275.579 237.986 274.556C237.986 273.477 236.773 272.419 235.606 272.48L234.636 272.531L235.613 272.673ZM233.841 273.192C233.062 274.128 233.039 275.036 233.774 275.934C234.18 276.429 234.777 276.832 235.103 276.829C235.506 276.826 235.414 276.689 234.812 276.398C233.815 275.916 233.414 274.079 234.126 273.254C234.357 272.987 234.467 272.768 234.37 272.768C234.273 272.768 234.035 272.959 233.841 273.192ZM194.391 275.845C198.301 276.888 201.055 282.688 199.423 286.442C198.723 288.053 196.847 289.98 195.182 290.799C193.75 291.503 193.568 291.508 174.027 291.292C163.187 291.172 154.253 291.012 154.174 290.936C153.864 290.638 154.859 283.771 155.501 281.773C156.294 279.305 157.855 277.088 159.461 276.147C160.546 275.511 161.318 275.482 176.814 275.482C187.245 275.482 193.517 275.612 194.391 275.845ZM165.358 277.017C162.437 278.278 160.981 280.647 161.19 283.798C161.375 286.59 162.527 288.291 165.049 289.499C168.212 291.014 171.407 290.434 173.695 287.929C176.559 284.794 175.991 280.096 172.457 277.697C170.647 276.468 167.359 276.153 165.358 277.017ZM188.24 277.284C186.433 278.201 184.784 280.497 184.507 282.482C183.936 286.574 187.542 290.389 191.975 290.383C193.807 290.38 196.588 288.892 197.654 287.344C198.785 285.702 199.156 282.986 198.508 281.099C197.157 277.165 192.144 275.303 188.24 277.284ZM177.843 279.804C177.617 279.952 177.434 281.534 177.394 283.696L177.326 287.338H179.765C181.752 287.338 182.247 287.23 182.438 286.752C182.785 285.882 182.245 280.093 181.79 279.804C181.575 279.667 180.684 279.556 179.811 279.556C178.939 279.556 178.053 279.667 177.843 279.804ZM210.203 301.923C209.563 302.058 208.928 302.275 208.792 302.405C208.657 302.535 208.501 305.223 208.446 308.378C208.346 314.096 208.349 314.118 209.223 314.958C210.052 315.754 210.316 315.801 213.995 315.801H217.889V318.783C217.889 320.65 218.047 321.917 218.312 322.171C218.63 322.477 223.026 322.578 235.928 322.578C255.819 322.578 253.851 323.022 253.851 318.534V315.801H257.475C262.894 315.801 262.666 316.114 262.666 308.708C262.666 303.993 262.559 302.584 262.18 302.282C261.624 301.839 212.215 301.497 210.203 301.923ZM210.363 303.206C209.881 303.718 209.78 304.618 209.78 308.39C209.78 311.489 209.916 313.085 210.203 313.361C210.462 313.611 211.731 313.768 213.482 313.768C215.233 313.768 216.501 313.611 216.761 313.361C217.048 313.085 217.184 311.489 217.184 308.39C217.184 304.618 217.083 303.718 216.6 303.206C216.036 302.606 216.648 302.586 235.533 302.586C250.713 302.586 254.956 302.677 254.627 302.993C254.394 303.217 254.186 304.397 254.163 305.619C254.127 307.589 254.093 307.692 253.86 306.532C253.716 305.814 253.377 305.092 253.107 304.928C252.309 304.442 218.469 304.536 217.96 305.026C217.671 305.303 217.536 306.926 217.536 310.12V314.807L213.57 314.711L209.604 314.615L209.506 309.037C209.453 305.97 209.488 303.263 209.584 303.023C209.679 302.783 210.025 302.586 210.352 302.586C210.906 302.586 210.907 302.629 210.363 303.206ZM261.432 308.69V314.615L257.641 314.711L253.851 314.808V313.755C253.851 312.788 253.897 312.747 254.419 313.248C254.87 313.682 255.606 313.773 258.032 313.696L261.079 313.599L261.177 308.518C261.265 303.98 261.208 303.39 260.648 302.982C260.058 302.552 260.063 302.532 260.726 302.645C261.4 302.76 261.432 303.031 261.432 308.69ZM252.617 313.768V321.731L236.087 321.819C224.174 321.882 219.422 321.8 219.075 321.524C218.696 321.221 218.594 319.606 218.594 313.924C218.594 309.955 218.691 306.465 218.81 306.169C219.003 305.684 220.734 305.638 235.821 305.717L252.617 305.805V313.768ZM215.444 307.681C216.361 308.152 216.303 308.499 215.228 308.97C213.709 309.635 211.543 309.387 211.543 308.548C211.543 307.428 213.924 306.899 215.444 307.681ZM259.337 307.838C260.014 308.342 260.014 308.352 259.337 308.855C258.442 309.519 256.867 309.502 255.778 308.816C254.65 308.106 254.679 307.748 255.879 307.573C257.872 307.283 258.671 307.344 259.337 307.838ZM254.1 310.126C254.016 310.545 253.947 310.202 253.947 309.363C253.947 308.524 254.016 308.182 254.1 308.601C254.184 309.02 254.184 309.706 254.1 310.126ZM182.178 313.3C181.749 313.714 181.893 318.344 182.35 318.783C182.928 319.338 184.569 319.296 185.073 318.712C185.328 318.417 185.445 317.29 185.381 315.748L185.276 313.26L183.853 313.159C183.071 313.104 182.317 313.167 182.178 313.3ZM184.395 315.971C184.395 317.947 184.322 318.173 183.69 318.173C183.057 318.173 182.984 317.947 182.984 315.971C182.984 313.994 183.057 313.768 183.69 313.768C184.322 313.768 184.395 313.994 184.395 315.971ZM203.791 326.655C204.034 327.22 204.137 327.775 204.019 327.889C203.662 328.231 202.818 327.358 202.64 326.464C202.401 325.26 203.25 325.401 203.791 326.655ZM204.552 329.238C204.906 329.546 205.196 330.003 205.196 330.253C205.196 331.203 207.736 333.42 209.382 333.907L211.014 334.39L209.251 334.393C206.808 334.396 202.461 333.955 202.168 333.673C202.034 333.544 202.203 332.482 202.542 331.312C203.407 328.33 203.453 328.282 204.552 329.238ZM272.805 381.113L272.714 402.037L140.411 402.122L8.10914 402.207V381.198V360.189H140.502H272.895L272.805 381.113ZM51.2473 369.551C47.7681 370.736 45.6932 374.42 46.5563 377.877C47.0341 379.791 48.3696 381.416 51.126 383.436C53.8278 385.416 54.3168 387.431 52.4242 388.784C51.119 389.717 48.1249 389.679 45.4817 388.696C44.4152 388.3 43.5027 387.975 43.4544 387.975C43.4061 387.975 43.3663 388.962 43.3663 390.168C43.3663 392.294 43.4019 392.381 44.5121 392.964C45.4133 393.437 46.4865 393.565 49.5363 393.565C53.8003 393.565 55.2479 393.106 57.1821 391.14C58.4768 389.824 58.8794 388.641 58.8794 386.155C58.8794 383.389 57.7173 381.572 54.565 379.41C52.1428 377.749 51.828 377.331 51.828 375.773C51.828 373.678 55.3417 372.683 58.3992 373.91C59.0924 374.189 59.7693 374.351 59.9036 374.271C60.0376 374.192 60.5287 373.344 60.9948 372.387C61.9686 370.389 61.9351 370.339 59.0797 369.506C56.9092 368.873 53.1734 368.895 51.2473 369.551ZM158.809 369.542C155.412 370.701 153.343 374.387 154.124 377.889C154.515 379.638 155.52 380.813 159.655 384.354C160.975 385.484 161.151 385.8 161.057 386.862C160.828 389.433 157.04 390.323 153.227 388.702C152.286 388.302 151.378 387.975 151.208 387.975C151.039 387.975 150.9 388.962 150.9 390.168C150.9 392.298 150.934 392.379 152.046 392.943C152.801 393.326 154.31 393.574 156.467 393.67C160.22 393.838 162.146 393.324 164.177 391.61C165.933 390.128 166.535 388.806 166.541 386.419C166.547 383.709 165.365 381.717 162.609 379.795C161.502 379.023 160.322 378.07 159.987 377.677C159.109 376.647 159.21 375.214 160.228 374.236C161.249 373.254 163.581 373.125 165.885 373.922C166.66 374.191 167.385 374.413 167.495 374.416C167.604 374.418 168.063 373.566 168.513 372.522C169.45 370.349 169.439 370.33 166.614 369.506C164.454 368.877 160.71 368.894 158.809 369.542ZM203.506 369.622C201.024 370.471 199.341 371.813 197.529 374.386C195.384 377.432 194.796 379.554 194.796 384.247C194.796 387.59 194.904 388.336 195.555 389.499C197.187 392.415 199.744 393.716 203.861 393.727C210.609 393.746 215.096 389.722 216.672 382.237C217.847 376.658 216.559 372.221 213.182 370.215C211.702 369.335 211.09 369.191 208.428 369.094C206.101 369.009 204.928 369.135 203.506 369.622ZM66.8556 370.14C66.7403 370.582 65.6262 375.575 64.3799 381.237C63.1332 386.9 62.0032 391.952 61.8685 392.464L61.6235 393.396H64.2924H66.9614L67.3044 392.125C67.4931 391.427 67.9133 389.541 68.2384 387.936L68.829 385.017L71.5455 384.838C75.0589 384.606 77.5283 383.591 79.3098 381.646C82.2436 378.443 82.0377 373.198 78.8882 370.914C77.2187 369.703 75.4086 369.342 70.993 369.34C67.155 369.338 67.0601 369.357 66.8556 370.14ZM86.6232 369.592C86.5404 369.732 86.3613 370.456 86.2255 371.202C86.0894 371.947 84.958 377.159 83.711 382.784C82.4643 388.409 81.444 393.098 81.444 393.204C81.444 393.31 84.5984 393.396 88.4534 393.396H95.4632L95.8574 391.891C96.5615 389.204 96.7508 389.33 92.0211 389.33C88.9135 389.33 87.7902 389.219 87.7902 388.914C87.7902 388.685 88.0554 387.313 88.379 385.865L88.9682 383.231H92.9713C97.4722 383.231 97.2882 383.343 97.8255 380.266L98.0769 378.826H94.2264C92.1085 378.826 90.2967 378.75 90.1997 378.656C90.1028 378.564 90.2621 377.42 90.5533 376.115L91.0833 373.743H93.9712C95.5592 373.743 97.5776 373.649 98.4562 373.533C99.9638 373.334 100.066 373.253 100.268 372.093C100.386 371.416 100.58 370.52 100.7 370.101L100.918 369.338H93.846C89.9564 369.338 86.7064 369.453 86.6232 369.592ZM105.11 370.948C104.902 371.833 103.766 376.979 102.586 382.384C101.406 387.788 100.359 392.48 100.259 392.81C100.089 393.372 100.528 393.405 107.23 393.318L114.381 393.227L114.787 391.278L115.193 389.33H111.032C108.743 389.33 106.793 389.21 106.699 389.064C106.605 388.917 106.794 387.583 107.119 386.099L107.711 383.4L111.765 383.231L115.82 383.061L116.241 381.875C116.472 381.223 116.67 380.27 116.681 379.758L116.701 378.826H112.823C110.165 378.826 108.945 378.705 108.945 378.441C108.945 378.23 109.127 377.105 109.35 375.941L109.756 373.826L111.554 373.618C112.543 373.504 114.554 373.409 116.023 373.407L118.696 373.404L119.108 371.684C119.336 370.738 119.522 369.823 119.522 369.651C119.522 369.47 116.561 369.338 112.505 369.338H105.489L105.11 370.948ZM123.054 374.675C122.419 377.61 121.229 383.036 120.409 386.731L118.919 393.451L124.949 393.338C130.6 393.234 131.105 393.17 132.962 392.334C138.055 390.039 140.722 385.447 140.749 378.928C140.763 375.383 140.144 373.558 138.336 371.817C136.289 369.848 134.305 369.338 128.677 369.338H124.209L123.054 374.675ZM174.523 369.492C174.523 369.739 169.564 392.148 169.361 392.818C169.194 393.371 169.423 393.417 171.914 393.326L174.652 393.227L175.734 388.313L176.815 383.4L180.781 383.304C183.379 383.242 184.747 383.331 184.747 383.564C184.747 383.867 183.373 390.278 182.803 392.634C182.624 393.373 182.7 393.396 185.28 393.396C187.101 393.396 187.987 393.262 188.082 392.972C188.188 392.649 191.787 376.257 193.066 370.27L193.265 369.338H190.621H187.977L187.452 371.625C187.162 372.884 186.819 374.446 186.689 375.099C186.559 375.751 186.3 376.856 186.115 377.555L185.778 378.826H181.913C178.81 378.826 178.048 378.731 178.048 378.345C178.048 378.08 178.445 376.101 178.93 373.945C179.415 371.79 179.811 369.872 179.811 369.683C179.811 369.48 178.724 369.338 177.167 369.338C175.713 369.338 174.523 369.408 174.523 369.492ZM223.734 369.729C223.65 369.98 223.168 372.091 222.664 374.421C222.159 376.75 221.037 381.824 220.17 385.695C219.303 389.566 218.594 392.882 218.594 393.065C218.594 393.251 219.738 393.396 221.203 393.396H223.812L224.371 390.939C224.678 389.588 225.099 387.704 225.306 386.751L225.683 385.02L228.42 384.839C234.68 384.427 238.03 381.428 238.03 376.237C238.03 373.4 237.014 371.546 234.808 370.359C233.383 369.592 232.761 369.496 228.556 369.39C224.869 369.297 223.855 369.368 223.734 369.729ZM74.9912 374.264C75.6498 374.679 75.8028 375.079 75.8028 376.387C75.8028 378.976 74.1147 380.52 71.2846 380.52H69.9043L70.6013 377.216C70.9846 375.399 71.4789 373.794 71.6996 373.649C72.2316 373.3 73.9783 373.627 74.9912 374.264ZM133.246 374.239C135.762 375.489 136.089 380.789 133.903 384.912C132.479 387.598 130.611 388.858 127.543 389.198C125.556 389.419 125.515 389.407 125.515 388.581C125.515 387.498 128.234 375.186 128.708 374.122C129.034 373.393 129.219 373.336 130.647 373.524C131.516 373.638 132.685 373.96 133.246 374.239ZM210.211 374.39C211.296 375.321 211.365 375.522 211.486 378.082C211.788 384.465 208.672 389.33 204.281 389.33C200.987 389.33 199.634 387.389 200.035 383.241C200.613 377.266 203.488 373.404 207.359 373.404C208.743 373.404 209.28 373.59 210.211 374.39ZM230.666 373.76C232.141 374.154 232.697 374.889 232.697 376.449C232.697 378.862 230.835 380.52 228.125 380.52C226.817 380.52 226.706 380.452 226.874 379.758C226.975 379.338 227.297 377.873 227.589 376.501C228.325 373.044 228.247 373.114 230.666 373.76ZM14.1028 381.537V384.586H26.0346H37.9663L39.2588 381.791C39.9696 380.253 40.5503 378.881 40.5485 378.741C40.5471 378.602 34.5961 378.487 27.3243 378.487H14.1028V381.537ZM241.384 381.185C240.679 382.668 240.101 384.041 240.101 384.234C240.101 384.471 244.414 384.586 253.322 384.586H266.544V381.537V378.487H254.605H242.667L241.384 381.185Z" fill="white"/>
</svg>
